<svg width="40" height="42" viewBox="0 0 40 42" fill="none" xmlns="http://www.w3.org/2000/svg">
<path d="M20 0.645142C8.95161 0.645142 0 9.59676 0 20.6451C0 31.6935 8.95161 40.6451 20 40.6451C31.0484 40.6451 40 31.6935 40 20.6451C40 9.59676 31.0484 0.645142 20 0.645142ZM20 8.38708C23.9194 8.38708 27.0968 11.5645 27.0968 15.4839C27.0968 19.4032 23.9194 22.5806 20 22.5806C16.0806 22.5806 12.9032 19.4032 12.9032 15.4839C12.9032 11.5645 16.0806 8.38708 20 8.38708ZM20 36.129C15.2661 36.129 11.0242 33.9839 8.18548 30.629C9.70161 27.7742 12.6694 25.8064 16.129 25.8064C16.3226 25.8064 16.5161 25.8387 16.7016 25.8951C17.75 26.2339 18.8468 26.4516 20 26.4516C21.1532 26.4516 22.2581 26.2339 23.2984 25.8951C23.4839 25.8387 23.6774 25.8064 23.871 25.8064C27.3306 25.8064 30.2984 27.7742 31.8145 30.629C28.9758 33.9839 24.7339 36.129 20 36.129Z" fill="#A9C4C4"/>
</svg>
